<svg width="36" height="33" viewBox="0 0 36 33" fill="none" xmlns="http://www.w3.org/2000/svg">
<rect x="1.5" y="1.5" width="33" height="29.087" rx="8.5" stroke="#7C51A1" stroke-width="3"/>
<path d="M15.2885 12.0279C15.4187 11.211 16.3897 10.8476 17.0242 11.3783V11.3783C17.8154 12.0401 18.9671 12.0401 19.7583 11.3783V11.3783C20.3929 10.8476 21.3638 11.211 21.494 12.0279L22.381 17.5917C22.5461 18.6274 21.7459 19.5652 20.6971 19.5652H16.0854C15.0366 19.5652 14.2364 18.6274 14.4015 17.5917L15.2885 12.0279Z" fill="#7C51A1"/>
<path d="M6.35658 17.7967C6.44825 17.2037 7.15631 16.9429 7.61067 17.3348V17.3348C8.18411 17.8294 9.0333 17.8294 9.60674 17.3348V17.3348C10.0611 16.9429 10.7692 17.2037 10.8608 17.7967L11.5154 22.0306C11.633 22.7916 11.0444 23.4782 10.2744 23.4782H6.94305C6.17306 23.4782 5.58442 22.7916 5.70205 22.0306L6.35658 17.7967Z" fill="#7C51A1"/>
<path d="M25.9218 17.7967C26.0134 17.2037 26.7215 16.9429 27.1759 17.3348V17.3348C27.7493 17.8294 28.5985 17.8294 29.1719 17.3348V17.3348C29.6263 16.9429 30.3343 17.2037 30.426 17.7967L31.0805 22.0306C31.1982 22.7916 30.6095 23.4782 29.8395 23.4782H26.5082C25.7382 23.4782 25.1496 22.7916 25.2672 22.0306L25.9218 17.7967Z" fill="#7C51A1"/>
<circle cx="18.3912" cy="8.2174" r="2.73913" fill="#7C51A1"/>
<circle cx="8.60867" cy="14.8695" r="1.56522" fill="#7C51A1"/>
<circle cx="28.1739" cy="14.8695" r="1.56522" fill="#7C51A1"/>
</svg>
