<svg width="33" height="33" viewBox="0 0 33 33" fill="none" xmlns="http://www.w3.org/2000/svg">
<path d="M19.7182 17.5658V21.6194C19.7182 22.8895 17.9722 23.2387 17.4837 22.0663L17.0764 21.0887C15.923 18.3205 12.0013 18.3205 10.8479 21.0887L10.4406 22.0663C9.95207 23.2387 8.20605 22.8895 8.20605 21.6194V17.5658C8.20605 14.3868 10.7831 11.8097 13.9621 11.8097C17.1411 11.8097 19.7182 14.3868 19.7182 17.5658Z" fill="#7C51A1" stroke="#7C51A1" stroke-width="2"/>
<path d="M22.52 15.9444V7.20653C22.52 6.21152 23.3266 5.40491 24.3216 5.40491V5.40491C25.3166 5.40491 26.1233 6.21152 26.1233 7.20653V17.2339C26.1233 17.3463 26.1043 17.4579 26.0672 17.564L25.3194 19.7028C25.0456 20.4859 23.9922 20.6143 23.5383 19.9199L22.8476 18.863" stroke="#7C51A1" stroke-width="2" stroke-linecap="round"/>
<line x1="22.2609" y1="13.5132" x2="20.1365" y2="12.1875" stroke="#7C51A1" stroke-width="2" stroke-linecap="round"/>
<path d="M25.2226 10.8097L28.185 13.7682C29.2055 14.7874 28.2282 16.5017 26.8314 16.1429V16.1429" stroke="#7C51A1" stroke-width="2" stroke-linecap="round"/>
<circle cx="13.9623" cy="4.95446" r="3.95446" fill="#7C51A1" stroke="#7C51A1" stroke-width="2"/>
<path d="M8.51738 10.7304L6.87338 9.15276C5.63086 7.96038 5.0894 6.21251 5.44025 4.52653L5.81986 2.7023" stroke="#7C51A1" stroke-width="2" stroke-linecap="round"/>
<line x1="1" y1="25.1235" x2="26.9251" y2="25.1235" stroke="#7C51A1" stroke-width="2" stroke-linecap="round"/>
</svg>
