<svg width="33" height="33" viewBox="0 0 33 33" fill="none" xmlns="http://www.w3.org/2000/svg">
<path d="M19.7187 17.5658V21.6195C19.7187 22.8896 17.9727 23.2388 17.4842 22.0664L17.0769 21.0888C15.9234 18.3206 12.0018 18.3206 10.8484 21.0888L10.4411 22.0664C9.95256 23.2388 8.20654 22.8896 8.20654 21.6195V17.5658C8.20654 14.3868 10.7836 11.8098 13.9626 11.8098C17.1416 11.8098 19.7187 14.3868 19.7187 17.5658Z" fill="#7C51A1" stroke="#7C51A1" stroke-width="2"/>
<path d="M22.5203 15.9444V7.20653C22.5203 6.21152 23.3269 5.40491 24.3219 5.40491V5.40491C25.3169 5.40491 26.1235 6.21152 26.1235 7.20653V17.2339C26.1235 17.3463 26.1046 17.4579 26.0675 17.564L25.3196 19.7028C25.0458 20.4859 23.9925 20.6143 23.5386 19.9199L22.8478 18.863" stroke="#7C51A1" stroke-width="2" stroke-linecap="round"/>
<line x1="22.2611" y1="13.5131" x2="20.1368" y2="12.1874" stroke="#7C51A1" stroke-width="2" stroke-linecap="round"/>
<path d="M25.2228 10.8097L28.1852 13.7682C29.2057 14.7874 28.2285 16.5017 26.8316 16.1429V16.1429" stroke="#7C51A1" stroke-width="2" stroke-linecap="round"/>
<circle cx="13.9625" cy="4.95446" r="3.95446" fill="#7C51A1" stroke="#7C51A1" stroke-width="2"/>
<path d="M8.51738 10.7304L6.87338 9.15276C5.63086 7.96038 5.0894 6.21251 5.44025 4.52653L5.81986 2.7023" stroke="#7C51A1" stroke-width="2" stroke-linecap="round"/>
<line x1="1" y1="25.1235" x2="26.9251" y2="25.1235" stroke="#7C51A1" stroke-width="2" stroke-linecap="round"/>
</svg>
