<svg width="36" height="33" viewBox="0 0 36 33" fill="none" xmlns="http://www.w3.org/2000/svg">
<rect x="1.5" y="1.5" width="33" height="29.087" rx="8.5" stroke="#7C51A1" stroke-width="3"/>
<path d="M15.2885 12.0279C15.4187 11.2111 16.3897 10.8477 17.0242 11.3784V11.3784C17.8154 12.0402 18.9671 12.0402 19.7583 11.3784V11.3784C20.3929 10.8477 21.3638 11.2111 21.494 12.0279L22.381 17.5917C22.5461 18.6274 21.7459 19.5653 20.6971 19.5653H16.0854C15.0366 19.5653 14.2364 18.6274 14.4015 17.5917L15.2885 12.0279Z" fill="#7C51A1"/>
<path d="M6.35634 17.7967C6.448 17.2038 7.15607 16.943 7.61043 17.3349V17.3349C8.18387 17.8295 9.03305 17.8295 9.6065 17.3349V17.3349C10.0609 16.943 10.7689 17.2038 10.8606 17.7967L11.5151 22.0307C11.6328 22.7917 11.0441 23.4783 10.2741 23.4783H6.94281C6.17281 23.4783 5.58417 22.7917 5.70181 22.0307L6.35634 17.7967Z" fill="#7C51A1"/>
<path d="M25.9218 17.7967C26.0134 17.2038 26.7215 16.943 27.1759 17.3349V17.3349C27.7493 17.8295 28.5985 17.8295 29.1719 17.3349V17.3349C29.6263 16.943 30.3343 17.2038 30.426 17.7967L31.0805 22.0307C31.1982 22.7917 30.6095 23.4783 29.8395 23.4783H26.5082C25.7382 23.4783 25.1496 22.7917 25.2672 22.0307L25.9218 17.7967Z" fill="#7C51A1"/>
<circle cx="18.3915" cy="8.2174" r="2.73913" fill="#7C51A1"/>
<circle cx="8.60867" cy="14.8695" r="1.56522" fill="#7C51A1"/>
<circle cx="28.1741" cy="14.8695" r="1.56522" fill="#7C51A1"/>
</svg>
